<?xml version="1.0" encoding="utf-8"?>
<!-- Generator: Adobe Illustrator 19.2.1, SVG Export Plug-In . SVG Version: 6.00 Build 0)  -->
<svg version="1.1" id="layer" xmlns="http://www.w3.org/2000/svg" xmlns:xlink="http://www.w3.org/1999/xlink" x="0px" y="0px"
	 viewBox="0 0 652 652" style="enable-background:new 0 0 652 652;" xml:space="preserve">
<style type="text/css">
	.st0{fill:#ffffff;}
	.st1{fill:#ffffff;}
</style>
<path class="st0" d="M552.8,498.5c20.1,0,36.4,16.3,36.4,36.4c0,20.1-16.3,36.4-36.4,36.4c-20.1,0-36.4-16.3-36.4-36.4
	C516.4,514.8,532.7,498.5,552.8,498.5 M58.5,291.6c-20.1,0-36.4,16.3-36.4,36.4c0,20.1,16.3,36.4,36.4,36.4s36.4-16.3,36.4-36.4
	C94.8,307.8,78.5,291.6,58.5,291.6"/>
<path class="st1" d="M30.6,389.4h55.8v180.4H30.6V389.4z M400,515.6c20.1,0,36.4-16.3,36.4-36.4c0-20.1-16.3-36.4-36.4-36.4
	s-36.4,16.3-36.4,36.4C363.7,499.3,379.9,515.6,400,515.6 M471.1,415.8c15.3,16.2,24.8,38.9,24.8,63.7c0,24.8-9.5,47.5-24.8,63.7
	c-15.3,16.3-36.6,26.4-60,26.4h0c-17.5,0-33.8-5.7-47.4-15.4v15.7h-55.8V286.6h55.8v118.2c13.5-9.7,29.9-15.4,47.4-15.4
	C434.5,389.3,455.8,399.5,471.1,415.8 M197.5,515.6c20.1,0,36.4-16.3,36.4-36.4c0-20.1-16.3-36.4-36.4-36.4s-36.4,16.3-36.4,36.4
	C161.1,499.4,177.4,515.6,197.5,515.6 M289.7,389.4v180.4h-55.8v-15.8c-13.5,9.8-29.9,15.6-47.5,15.6h-0.1
	c-23.3,0-44.6-10.1-59.9-26.4c-15.3-16.2-24.8-38.9-24.8-63.7c0-24.8,9.5-47.5,24.8-63.7c15.3-16.3,36.6-26.4,59.9-26.4
	c17.6,0,34,5.8,47.5,15.6v-15.5H289.7z M543.8,83c-10.3,1.9-17.2,9.7-17.2,19.4c0,9.7,7.3,17.7,17.2,19.4V83z M567.2,71.7
	c3.7,1.9,7.6,4.8,10.7,8.1c5.4,6,8.1,13.5,8.1,22c0,15.9-10,32.6-34.5,32.6c-19.7,0-35-12.1-35-32c0-12.9,6.4-21,12.1-25
	c5.9-4.1,16.1-6.5,24.8-6.2v51.4c13.7-0.2,22.4-9.6,22.4-21c0-5.4-1.6-9.7-4.8-13.5c-2.5-3-5.9-5.4-9.1-6.8L567.2,71.7z
	 M575.8,177.2c0-13.4-11.1-21.5-24.4-21.5c-16.2,0-24.8,11-24.8,21.6c0,10.7,8.8,22,24.7,22C564.8,199.4,575.8,190.8,575.8,177.2
	 M620.7,198.7v11.5H518v-11.5h9.2c-9.7-7.8-10.8-17.8-10.8-22.6c0-20.7,17.2-32.2,35-32.2c18.1,0,34.5,11.6,34.5,31.7
	c0,10.7-4.8,18.1-11.1,23.1H620.7z M526.6,258.9c0,12.1,8.6,23.2,24.7,23.2c16.2,0,24.5-11.5,24.5-23.2c0-11.9-8.4-23.2-24.5-23.2
	C535.1,235.7,526.6,246.8,526.6,258.9 M586,258.9c0,20.1-14.6,35-34.7,35s-34.9-14.8-34.9-35c0-20.2,14.8-35,34.9-35
	S586,238.8,586,258.9 M518,329.2v-11.5h7.2c-1.8-1.1-8.8-6-8.8-15c0-3.5,1.3-7.3,2.7-10.2l10.3,5.4c-1.8,2.5-2.2,4.9-2.2,6.7
	c0,4.6,1.9,7.5,4.1,9.2c2.5,1.9,7,3.8,17.8,3.8h34.9v11.5H518z M556.6,388.1c4.6,0,10,0,14.2-3.2c2.2-1.8,5.1-5.3,5.1-11.6
	c0-6.4-2.9-9.9-5.1-11.6c-4.1-3.2-9.5-3.2-14.2-3.2H518v-11.5h39.8c8.1,0,14.2,0.8,19.9,6.1c6.2,5.9,8.3,13.7,8.3,20.2
	c0,6.5-2.1,14.3-8.3,20.2c-5.7,5.3-11.8,6-19.9,6H518v-11.5H556.6z M543.8,425.1c-10.3,1.9-17.2,9.7-17.2,19.4
	c0,9.7,7.3,17.7,17.2,19.4V425.1z M567.2,413.8c3.7,1.9,7.6,4.8,10.7,8.1c5.4,6.1,8.1,13.5,8.1,22c0,15.9-10,32.6-34.5,32.6
	c-19.7,0-35-12.1-35-32c0-12.9,6.4-21,12.1-25c5.9-4.1,16.1-6.5,24.8-6.2v51.4c13.7-0.2,22.4-9.6,22.4-21c0-5.4-1.6-9.7-4.8-13.5
	c-2.5-3-5.9-5.4-9.1-6.8L567.2,413.8z"/>
</svg>
